<?xml version="1.0" standalone="no"?>
<!DOCTYPE svg PUBLIC "-//W3C//DTD SVG 20010904//EN"
 "http://www.w3.org/TR/2001/REC-SVG-20010904/DTD/svg10.dtd">
<svg version="1.0" xmlns="http://www.w3.org/2000/svg"
 width="931.000000pt" height="229.000000pt" viewBox="0 0 931.000000 229.000000"
 preserveAspectRatio="xMidYMid meet">
<metadata>
Created by potrace 1.16, written by Peter Selinger 2001-2019
</metadata>
<g transform="translate(0.000000,229.000000) scale(0.100000,-0.100000)"
fill="#000000" stroke="none">
<path d="M1381 2229 c-132 -23 -261 -85 -356 -171 l-53 -48 -451 0 -451 0 0
-955 0 -955 955 0 955 0 0 440 0 440 59 70 c174 208 222 471 131 721 -78 214
-266 386 -485 444 -75 19 -233 27 -304 14z m267 -403 c70 -35 128 -95 161
-165 35 -75 37 -201 4 -273 -30 -66 -105 -143 -172 -175 -48 -24 -68 -28 -141
-28 -73 0 -93 4 -142 28 -72 35 -134 97 -167 167 -22 47 -26 69 -26 145 0 78
4 97 27 141 49 93 106 143 206 181 61 22 186 12 250 -21z m-864 -263 c-15
-169 53 -370 174 -512 131 -154 325 -241 539 -241 l103 0 0 -165 0 -165 -575
0 -575 0 0 575 0 575 170 0 170 0 -6 -67z"/>
<path d="M5484 1641 c-40 -17 -64 -60 -64 -113 0 -43 4 -54 34 -84 30 -30 40
-34 86 -34 46 0 56 4 86 34 30 30 34 40 34 85 0 41 -5 56 -28 82 -23 26 -37
32 -78 35 -27 2 -59 0 -70 -5z"/>
<path d="M2660 1115 l0 -475 120 0 120 0 0 475 0 475 -120 0 -120 0 0 -475z"/>
<path d="M6829 1370 c-196 -23 -308 -169 -240 -315 36 -78 94 -110 261 -145
126 -27 140 -33 140 -65 0 -31 -35 -55 -82 -55 -53 0 -86 16 -106 50 l-17 30
-116 0 -117 0 10 -42 c29 -131 146 -202 333 -202 206 0 335 93 335 241 0 69
-19 114 -61 145 -46 34 -74 43 -214 73 -127 27 -162 46 -151 82 20 62 166 52
182 -12 6 -25 7 -25 115 -25 l109 0 0 28 c0 49 -47 128 -96 161 -68 45 -173
63 -285 51z"/>
<path d="M3198 1347 c-148 -63 -214 -183 -206 -377 3 -84 8 -105 36 -163 38
-77 93 -128 167 -156 154 -58 336 -24 429 79 128 142 124 413 -9 545 -68 68
-122 88 -250 92 -98 3 -116 1 -167 -20z m198 -162 c85 -35 111 -240 43 -337
-11 -15 -37 -33 -59 -39 -33 -10 -43 -9 -72 7 -51 30 -73 83 -73 184 0 102 22
155 76 182 41 22 41 22 85 3z"/>
<path d="M4830 1353 c-163 -57 -243 -208 -220 -413 11 -95 34 -153 86 -210 93
-103 275 -137 429 -79 74 28 129 79 167 156 28 58 33 79 36 163 8 194 -59 315
-206 376 -70 29 -220 33 -292 7z m203 -181 c53 -46 77 -206 43 -285 -32 -76
-116 -107 -167 -62 -74 67 -81 261 -11 338 36 40 96 44 135 9z"/>
<path d="M6136 1358 c-23 -6 -59 -30 -87 -57 l-49 -47 0 53 0 53 -120 0 -120
0 0 -475 0 -475 120 0 120 0 0 172 0 173 25 -37 c64 -95 238 -118 346 -45 41
27 95 105 109 157 64 236 1 455 -148 517 -45 19 -148 25 -196 11z m50 -197
c64 -39 93 -170 56 -254 -54 -122 -195 -109 -231 20 -45 161 62 303 175 234z"/>
<path d="M8460 1357 c-45 -21 -74 -46 -97 -85 l-23 -37 0 63 0 62 -115 0 -115
0 0 -360 0 -360 120 0 120 0 0 236 0 236 29 29 c21 21 39 29 64 29 92 0 97
-16 97 -300 l0 -230 114 0 115 0 3 241 3 241 28 24 c35 30 94 32 128 5 24 -19
24 -20 27 -265 l3 -246 125 0 126 0 -4 283 c-3 268 -4 284 -25 323 -44 82
-116 124 -213 124 -95 0 -169 -41 -207 -114 l-15 -30 -15 34 c-31 75 -91 110
-185 109 -35 0 -74 -6 -88 -12z"/>
<path d="M3970 1347 c-19 -6 -58 -34 -87 -63 -68 -67 -93 -144 -93 -283 0
-211 79 -326 243 -353 85 -14 156 6 211 59 l38 38 -4 -79 c-3 -70 -6 -81 -31
-101 -55 -48 -154 -42 -196 11 -18 23 -25 24 -135 24 -89 0 -116 -3 -116 -13
0 -7 12 -36 26 -65 48 -96 160 -147 324 -146 149 0 251 39 317 119 51 61 53
82 53 489 l0 376 -120 0 -120 0 0 -47 0 -47 -32 31 c-53 50 -89 63 -170 62
-40 -1 -89 -6 -108 -12z m262 -204 c33 -32 48 -78 48 -151 0 -101 -47 -162
-125 -162 -80 0 -125 61 -125 169 0 68 12 106 43 140 46 49 110 51 159 4z"/>
<path d="M5420 1000 l0 -360 120 0 120 0 0 360 0 360 -120 0 -120 0 0 -360z"/>
<path d="M7312 1077 l3 -284 30 -49 c19 -30 49 -60 79 -79 46 -28 57 -30 141
-30 80 0 96 3 126 24 19 13 45 38 57 55 l22 31 0 -53 0 -52 120 0 120 0 0 360
0 360 -120 0 -120 0 0 -229 0 -229 -25 -31 c-36 -42 -83 -56 -128 -37 -62 26
-67 47 -67 301 l0 225 -120 0 -121 0 3 -283z"/>
</g>
</svg>
